<mxfile host="app.diagrams.net" modified="2024-04-30T08:32:58.228Z" agent="Mozilla/5.0 (Windows NT 10.0; Win64; x64) AppleWebKit/537.36 (KHTML, like Gecko) Chrome/123.0.0.0 Safari/537.36" version="24.3.1" etag="QcxfejfVVlgJHX_bY0D-" type="github">
  <diagram name="第 1 页" id="KHuqdY4K6ytbpqwQ5n7G">
    <mxGraphModel>
      <root>
        <mxCell id="0" />
        <mxCell id="1" parent="0" />
      </root>
    </mxGraphModel>
  </diagram>
</mxfile>
